<svg width="122" height="44" fill="none" xmlns="http://www.w3.org/2000/svg"><path fill-rule="evenodd" clip-rule="evenodd" d="M8.351 37.448h2.684c.68 0 1.204.236 1.531.63.288.328.459.749.459 1.26 0 1.182-.694 1.892-2.082 1.892H9.23v2.639h-.877v-6.421Zm.878 3.06h1.636c.864 0 1.283-.447 1.283-1.156 0-.749-.458-1.142-1.244-1.142H9.23v2.297Zm11.414.708h-1.728v2.653h-.89v-6.421h2.88c.694 0 1.204.236 1.545.63.288.328.458.749.458 1.248 0 .906-.524 1.575-1.375 1.812l1.558 2.73h-.995l-1.453-2.652Zm-1.728-.722h1.82c.864 0 1.296-.367 1.296-1.142 0-.762-.432-1.142-1.257-1.142h-1.859v2.284Zm8.928.171c0-1.93 1.19-3.348 3.128-3.348 1.924 0 3.142 1.418 3.142 3.348 0 1.904-1.218 3.335-3.142 3.335-1.937 0-3.128-1.431-3.128-3.335Zm5.354 0c0-1.484-.773-2.587-2.226-2.587-1.453 0-2.238 1.103-2.238 2.587 0 1.457.785 2.56 2.238 2.56 1.453 0 2.226-1.103 2.226-2.56Z" fill="#000"/><path d="M39.31 37.448h4.372v.788h-3.495v1.917h2.906v.748h-2.906v2.968h-.877v-6.421Zm9.464 0h4.555v.788h-3.678v1.93h3.325v.735H49.65v2.167h3.77v.8h-4.647v-6.42Zm9.372 4.346h.864c.105.959.746 1.497 1.898 1.497.851 0 1.48-.38 1.48-1.155 0-.84-.747-1.038-1.86-1.287-1.151-.237-2.12-.565-2.12-1.8 0-1.076.903-1.72 2.225-1.72 1.571 0 2.278.802 2.422 1.892h-.85c-.105-.775-.668-1.195-1.572-1.195-.837 0-1.387.341-1.387.984 0 .696.694.893 1.662 1.09 1.23.25 2.357.565 2.357 1.996 0 1.221-.995 1.904-2.383 1.904-1.78 0-2.67-.985-2.736-2.206Zm9.897 0h.876c.092.959.734 1.497 1.899 1.497.85 0 1.466-.38 1.466-1.155 0-.84-.746-1.038-1.86-1.287-1.138-.237-2.107-.565-2.107-1.8 0-1.076.904-1.72 2.213-1.72 1.57 0 2.277.802 2.434 1.892h-.85c-.118-.775-.668-1.195-1.571-1.195-.851 0-1.4.341-1.4.984 0 .696.693.893 1.662 1.09 1.243.25 2.356.565 2.356 1.996 0 1.221-.995 1.904-2.37 1.904-1.793 0-2.67-.985-2.748-2.206Zm10.315-4.346h.877v6.42h-.877v-6.42Z" fill="#000"/><path fill-rule="evenodd" clip-rule="evenodd" d="M84.457 40.665c0-1.93 1.192-3.348 3.13-3.348 1.923 0 3.14 1.418 3.14 3.348 0 1.904-1.217 3.335-3.14 3.335-1.938 0-3.13-1.431-3.13-3.335Zm5.354 0c0-1.484-.772-2.587-2.225-2.587s-2.238 1.103-2.238 2.587c0 1.457.785 2.56 2.238 2.56 1.453 0 2.225-1.103 2.225-2.56Z" fill="#000"/><path d="M95.924 37.448h.917l2.618 4.018c.314.472.72 1.287.72 1.287h.026s-.066-.84-.066-1.38v-3.925h.825v6.42h-.903l-2.618-4.017c-.314-.486-.733-1.274-.733-1.274h-.013s.052.84.052 1.366v3.926h-.825v-6.421Z" fill="#000"/><path fill-rule="evenodd" clip-rule="evenodd" d="M108.255 37.448h.982l2.356 6.42h-.968l-.629-1.877h-2.526l-.655 1.878h-.903l2.343-6.421Zm-.536 3.847h2.042l-.602-1.786a14.755 14.755 0 0 1-.393-1.365h-.026s-.184.761-.393 1.365l-.628 1.786Z" fill="#000"/><path d="M116.541 37.448h.877v5.62h3.312v.8h-4.189v-6.42ZM71.695 17.976c0 3.164-.537 4.254-1.846 5.646-1.218 1.3-2.893 1.917-4.948 1.917-4.516 0-6.454-2.39-6.454-5.436V.223h-6.1v18.974c0 6.197 3.679 9.506 11.441 9.506 2.16 0 4.058-.368 5.681-1.116 2.972-1.352 5.04-4.556 5.04-8.128V.223h-2.814v17.753Zm23.68-4.531a37.714 37.714 0 0 0-3.417-1.733 97.343 97.343 0 0 0-3.416-1.483c-1.048-.43-1.925-1.038-2.632-1.826-.706-.787-1.06-1.724-1.06-2.81 0-1.199.454-2.131 1.362-2.796.907-.666 2.177-.998 3.809-.998 2.61 0 4.9.683 6.872 2.048l.969-1.536C95.619.771 92.818 0 89.458 0c-3.107 0-5.537.7-7.291 2.1-1.754 1.41-2.631 3.38-2.631 5.91 0 1.356.261 2.551.785 3.584s1.2 1.865 2.029 2.495a16.205 16.205 0 0 0 2.775 1.694c1.012.499 2.02.954 3.024 1.365.995.42 1.911.854 2.749 1.3a6.037 6.037 0 0 1 2.029 1.733c.523.71.785 1.528.785 2.456 0 1.392-.532 2.447-1.597 3.164-1.064.727-2.548 1.09-4.45 1.09-3.168 0-5.769-.77-7.802-2.31l-1.008 1.575c2.12 1.698 5.18 2.547 9.176 2.547 3.447 0 6.148-.748 8.103-2.245s2.932-3.59 2.932-6.277c0-1.575-.353-2.94-1.06-4.096-.716-1.156-1.593-2.036-2.631-2.64Zm25.565 2.64c-.707-1.156-1.584-2.036-2.631-2.64a37.752 37.752 0 0 0-3.417-1.733 105.65 105.65 0 0 0-3.403-1.483c-1.048-.43-1.925-1.038-2.631-1.826-.716-.787-1.07-1.724-1.061-2.81 0-1.199.454-2.131 1.362-2.796.898-.666 2.164-.998 3.796-.998 2.618 0 4.913.683 6.885 2.048l.969-1.536C118.557.771 115.756 0 112.405 0c-3.107 0-5.537.7-7.291 2.1-1.754 1.41-2.631 3.38-2.631 5.91 0 1.356.261 2.551.785 3.584s1.2 1.865 2.029 2.495a15.554 15.554 0 0 0 2.775 1.694c1.012.499 2.02.954 3.024 1.365.995.42 1.907.854 2.736 1.3.838.447 1.514 1.024 2.029 1.733.523.71.785 1.528.785 2.456 0 1.392-.528 2.447-1.584 3.164-1.064.727-2.548 1.09-4.45 1.09-3.177 0-5.778-.77-7.802-2.31l-1.021 1.575c2.12 1.698 5.184 2.547 9.189 2.547 3.447 0 6.148-.748 8.103-2.245 1.946-1.497 2.919-3.59 2.919-6.277 0-1.575-.353-2.94-1.06-4.096ZM0 2.298h8.286v25.827h6.192V2.298h8.116V.223H0v2.075Zm47.164 5.147c0-4.832-3.81-7.222-11.441-7.222h-9.032v27.902h6.087V2.377h2.63c3.535 0 5.8 2.39 5.8 5.698 0 3.506-2.304 5.87-6.401 6.815l7.631 13.235h6.401L40.776 15.14c4.241-1.601 6.388-4.149 6.388-7.694Z" fill="#000"/></svg>